<?xml version="1.0" encoding="UTF-8" standalone="no"?>
<svg
   width="607"
   height="607"
   version="1.1"
   id="svg1"
   sodipodi:docname="icon.svg"
   inkscape:version="1.4.2 (f4327f4, 2025-05-13)"
   xmlns:inkscape="http://www.inkscape.org/namespaces/inkscape"
   xmlns:sodipodi="http://sodipodi.sourceforge.net/DTD/sodipodi-0.dtd"
   xmlns="http://www.w3.org/2000/svg"
   xmlns:svg="http://www.w3.org/2000/svg">
  <defs
     id="defs1" />
  <sodipodi:namedview
     id="namedview1"
     pagecolor="#ffffff"
     bordercolor="#000000"
     borderopacity="0.25"
     inkscape:showpageshadow="2"
     inkscape:pageopacity="0.0"
     inkscape:pagecheckerboard="0"
     inkscape:deskcolor="#d1d1d1"
     showguides="false"
     inkscape:zoom="0.17154036"
     inkscape:cx="183.63025"
     inkscape:cy="-393.4934"
     inkscape:window-width="1920"
     inkscape:window-height="1051"
     inkscape:window-x="-9"
     inkscape:window-y="-9"
     inkscape:window-maximized="1"
     inkscape:current-layer="svg1" />
  <path
     d="m 429.51995,72.721201 c 0.0786,98.974649 0.20829,388.904849 0.34627,487.876769 0.0162,1.26668 0.0162,1.26668 0.0327,2.55895 -0.0403,7.73136 -2.27084,13.06427 -7.43576,18.96034 -0.69223,0.81855 -1.38446,1.63711 -2.09766,2.48047 -8.49611,6.97686 -18.11077,6.90461 -28.60464,6.83323 -1.59099,0.004 -3.18197,0.01 -4.77294,0.0168 -4.35169,0.0147 -8.70302,0.005 -13.0547,-0.01 -4.70079,-0.0111 -9.40153,8.4e-4 -14.10231,0.01 -9.20029,0.0139 -18.40045,0.006 -27.60073,-0.009 -10.7162,-0.0169 -21.43237,-0.0136 -32.14859,-0.01 -19.12023,0.006 -38.2404,-0.008 -57.36062,-0.0329 -18.55048,-0.0239 -37.10087,-0.031 -55.65137,-0.0205 -20.20676,0.0114 -40.41349,0.0133 -60.62025,-10e-4 -2.15466,-0.002 -4.30933,-0.003 -6.46399,-0.005 -1.0601,-7.5e-4 -2.12021,-0.002 -3.21244,-0.002 -7.46889,-0.005 -14.93776,-0.003 -22.40665,0.001 -9.10107,0.005 -18.20205,-0.001 -27.3031,-0.0209 -4.64302,-0.01 -9.2859,-0.015 -13.92892,-0.007 -4.25115,0.007 -8.50205,2.4e-4 -12.75317,-0.0176 -1.53684,-0.004 -3.07371,-0.003 -4.61054,0.004 -10.3427,0.0404 -18.70848,-0.34409 -26.64332,-7.66299 C 1.36887,575.26212 0.2261,566.55109 0.25825,555.52512 0.25372,554.3828 0.24919,553.24048 0.24452,552.06355 0.23187,548.23912 0.2335,420.41483 0.23515,416.59039 0.23025,413.84699 0.22242,411.1036 0.21479,408.36021 0.1982,401.68354 0.19269,395.0069 0.19157,388.33021 0.19062,382.90139 0.1865,377.47259 0.18017,372.04378 0.16256,356.64128 0.15333,341.23881 0.15483,325.8363 c 8e-5,-0.82978 1.6e-4,-1.65955 2.4e-4,-2.51447 8e-5,-0.83079 1.6e-4,-1.66158 2.5e-4,-2.51755 C 0.1561,307.34231 0.13696,293.8798 0.10876,280.41721 0.08002,266.58332 0.06623,252.74949 0.06795,238.91557 0.06862,231.15311 0.06315,223.39078 0.0416,215.62835 0.02336,209.01919 0.01906,202.4102 0.03261,195.80103 0.03913,192.43153 0.03712,189.06262 0.02191,185.69311 0.00646,182.03361 0.01576,178.37496 0.03117,174.71547 0.02088,173.65991 0.0106,172.60435 0,171.5168 0.09138,161.67102 0,72.532658 0,72.532658 c 0,0 349.70182,2.167653 429.52,0.188173 z"
     fill="#a9d5ef"
     id="svg_2"
     sodipodi:nodetypes="ccccccccccccscccccccccccccscssccccccccccc" />
  <g
     id="g2"
     transform="matrix(2.1365617,0,0,2.1365617,-253.68796,-374.29601)">
    <path
       d="m 152.10041,231.56938 c 0.9381,-0.004 1.87619,-0.008 2.84271,-0.0125 1.02715,0.0108 2.05429,0.0216 3.11257,0.0327 1.08308,-4.4e-4 2.16617,-8.8e-4 3.28207,-0.001 3.58755,0.002 7.17464,0.0254 10.76212,0.0489 2.48435,0.006 4.96871,0.01 7.45308,0.0129 5.87549,0.0103 11.7508,0.034 17.62622,0.0641 7.34528,0.0368 14.69058,0.0529 22.03593,0.0696 13.1036,0.0322 26.20706,0.0828 39.31055,0.14648 0.009,0.88261 0.0187,1.76521 0.0283,2.67456 0.0441,3.29001 0.1058,6.57873 0.1792,9.86817 0.0281,1.42078 0.0494,2.84171 0.0635,4.26269 0.0215,2.04874 0.0682,4.09563 0.11963,6.1438 0.0314,1.84598 0.0314,1.84598 0.0635,3.72925 0.65921,4.01097 1.65448,5.49091 4.5459,8.32153 3.1754,0.7773 3.1754,0.7773 6.73437,0.70703 1.29551,0.029 2.59102,0.058 3.92578,0.0879 1.36328,0.006 2.72656,0.0122 4.08985,0.0176 1.37894,0.0231 2.75785,0.0485 4.13672,0.0762 3.37138,0.0589 6.74146,0.0952 10.11328,0.11132 0.0934,20.6619 0.16395,41.32377 0.20725,61.98583 0.0206,9.5935 0.0488,19.18687 0.0945,28.78029 0.0398,8.36043 0.0657,16.72077 0.0746,25.08129 0.005,4.42796 0.0175,8.85565 0.0466,13.28352 0.0271,4.16637 0.0355,8.33236 0.0295,12.49881 10e-4,1.53027 0.009,3.06056 0.0244,4.59075 0.0199,2.08789 0.0151,4.17432 0.004,6.26224 0.004,1.16883 0.007,2.33767 0.0112,3.54192 -0.49219,2.97535 -0.49219,2.97535 -2.16169,5.35094 -2.91461,2.03155 -4.56231,2.12714 -8.09955,2.13235 -1.1777,0.0113 -2.35539,0.0226 -3.56878,0.0342 -1.28844,-0.008 -2.57688,-0.0162 -3.90436,-0.0245 -1.3734,0.005 -2.7468,0.0125 -4.12018,0.0212 -3.72733,0.0182 -7.45422,0.0112 -11.18156,-0.002 -3.90057,-0.0101 -7.8011,-7.4e-4 -11.70168,0.006 -6.55036,0.007 -13.10054,-0.002 -19.65088,-0.0214 -7.57322,-0.0218 -15.14601,-0.0147 -22.71923,0.007 -6.50203,0.0182 -13.00394,0.0207 -19.506,0.0102 -3.88347,-0.006 -7.76674,-0.007 -11.65019,0.006 -3.65109,0.0116 -7.30161,0.004 -10.95263,-0.0196 -1.97921,-0.008 -3.95845,0.004 -5.93763,0.0165 -1.1777,-0.0113 -2.3554,-0.0226 -3.56879,-0.0342 -1.02353,-0.002 -2.04705,-0.003 -3.10159,-0.005 -2.66745,-0.50337 -2.66745,-0.50337 -4.99669,-2.05074 -2.2801,-3.34712 -2.2232,-6.2911 -2.17197,-10.20252 -0.006,-0.78534 -0.0111,-1.57069 -0.0168,-2.37983 -0.0136,-2.63424 0.001,-5.26754 0.0163,-7.90177 -0.004,-1.88733 -0.009,-3.77465 -0.0164,-5.66197 -0.014,-5.12802 -0.003,-10.2557 0.0137,-15.3837 0.0138,-5.36112 0.007,-10.72222 0.004,-16.08334 -0.003,-9.00263 0.0108,-18.00512 0.034,-27.00771 0.0266,-10.41676 0.0284,-20.83329 0.0166,-31.25007 -0.0108,-10.01133 -0.005,-20.02257 0.01,-30.03389 0.006,-4.26512 0.006,-8.53017 9.4e-4,-12.79528 -0.005,-5.0192 0.005,-10.03816 0.0269,-15.05732 0.006,-1.84511 0.006,-3.69025 10e-4,-5.53536 -0.006,-2.5126 0.006,-5.02443 0.0238,-7.53696 -0.006,-0.73559 -0.012,-1.47119 -0.0182,-2.22907 0.0357,-2.84498 0.0992,-4.90991 1.64421,-7.34772 2.25697,-1.34022 3.71339,-1.41577 6.33644,-1.40688 z"
       fill="#fafafb"
       id="svg_3" />
    <path
       d="m 165.52564,363.93016 c 34.98,0 69.96,0 106,0 0,3.3 0,6.6 0,10 -34.98,0 -69.96,0 -106,0 0,-3.3 0,-6.6 0,-10 z"
       fill="#ced7df"
       id="svg_7" />
    <path
       d="m 165.52564,338.93016 c 34.98,0 69.96,0 106,0 0,2.97 0,5.94 0,9 -34.98,0 -69.96,0 -106,0 0,-2.97 0,-5.94 0,-9 z"
       fill="#ced6df"
       id="svg_8" />
    <path
       d="m 165.52564,313.93016 c 34.98,0 69.96,0 106,0 0,2.97 0,5.94 0,9 -34.98,0 -69.96,0 -106,0 0,-2.97 0,-5.94 0,-9 z"
       fill="#ced7df"
       id="svg_9" />
    <path
       d="m 165.52564,287.93016 c 34.98,0 69.96,0 106,0 0,2.97 0,5.94 0,9 -34.98,0 -69.96,0 -106,0 0,-2.97 0,-5.94 0,-9 z"
       fill="#ced6de"
       id="svg_10" />
    <path
       d="m 258.52564,232.93016 c 1.11762,1.13502 1.11762,1.13502 2.25781,2.29297 2.14914,2.12158 4.30468,4.08604 6.61719,6.01953 3.30318,2.86276 6.10421,5.89223 8.91797,9.22656 3.68336,4.10712 7.64674,7.93912 11.58447,11.80103 0.59603,0.58773 1.19206,1.17546 1.80615,1.781 0.54197,0.53037 1.08394,1.06074 1.64234,1.60718 1.17407,1.27173 1.17407,1.27173 1.17407,2.27173 -4.03814,0.14887 -8.07522,0.25745 -12.11548,0.32959 -1.37268,0.0301 -2.74517,0.071 -4.11719,0.12305 -11.34793,0.41983 -11.34793,0.41983 -16.17358,-2.54639 -3.21761,-5.42445 -2.09949,-12.71124 -1.90625,-18.78125 0.0251,-1.36975 0.0479,-2.73955 0.0684,-4.10937 0.0588,-3.33968 0.14094,-6.67708 0.24414,-10.01563 z"
       fill="#dae2ea"
       id="svg_11" />
    <path
       d="m 165.52564,389.93016 c 18.81,0 37.62,0 57,0 0,2.97 0,5.94 0,9 -18.81,0 -37.62,0 -57,0 0,-2.97 0,-5.94 0,-9 z"
       fill="#ccd5dd"
       id="svg_14" />
  </g>
  <g
     id="g1"
     transform="translate(0,-118)">
    <path
       d="m 27.02659,139.79872 c 0.65423,-0.002 1.30846,-0.004 1.98252,-0.006 2.20152,-0.006 4.40298,-0.004 6.6045,-0.003 l 4.77191,-0.009 c 4.37846,-0.008 10.7569,-0.01 15.13537,-0.0106 4.71927,-0.002 9.43853,-0.009 14.15779,-0.0161 10.32221,-0.0136 20.64443,-0.0196 30.96665,-0.024 6.44317,-0.003 12.88634,-0.007 19.32951,-0.0115 17.8337,-0.0122 35.6674,-0.0225 53.5011,-0.0259 1.14159,-2.2e-4 2.28319,-4.4e-4 3.45938,-6.7e-4 1.14435,-2.1e-4 2.2887,-4.3e-4 3.46773,-6.6e-4 2.31894,-4.4e-4 4.63788,-8.9e-4 6.95683,-0.001 1.15027,-2.2e-4 2.30055,-4.4e-4 3.48569,-6.7e-4 18.6445,-0.004 37.28895,-0.0214 55.93344,-0.0447 19.13466,-0.0237 38.2693,-0.0362 57.40398,-0.0373 10.74641,-9.2e-4 21.49278,-0.007 32.23918,-0.0248 9.14954,-0.0154 18.29901,-0.0205 27.44856,-0.0123 4.66918,0.004 9.33823,0.003 14.0074,-0.0111 4.27415,-0.0127 8.54806,-0.0116 12.8222,5.9e-4 1.54643,0.002 3.09288,-0.001 4.63929,-0.01 2.1028,-0.0111 4.20478,-0.004 6.30756,0.008 1.16775,-6e-4 2.3355,-0.001 3.53864,-0.002 6.30197,0.70523 10.90823,3.42423 15.58983,7.68625 0.83015,0.73863 1.66031,1.47726 2.51562,2.23828 6.22239,6.82069 6.29536,9.93333 6.2533,18.59551 -0.0421,8.66218 -0.19916,22.87389 -0.19916,31.85371 H 0 c 0,-43.61187 -0.47435,-43.61187 5.23658,-51.30469 6.72638,-6.34743 12.57341,-8.8169 21.79001,-8.82674 z"
       fill="#4995ca"
       id="svg_4"
       sodipodi:nodetypes="ccccccccssscccccccccccccsccccc" />
    <path
       d="m 119.52564,158.93016 c 0.33,0.66 0.66,1.32 1,2 0.99,0.33 1.98,0.66 3,1 2.69657,4.04486 2.54227,7.25307 2,12 -1.23289,2.89729 -2.2245,4.39683 -4.6875,6.3125 -3.49485,1.03901 -6.74473,1.37914 -10.3125,0.6875 -3.0209,-1.74757 -5.41609,-3.83218 -7,-7 -0.57792,-7.05057 -0.57792,-7.05057 1.75,-10.875 4.68696,-4.42658 7.98325,-4.33389 14.25,-4.125 z"
       fill="#dce5ec"
       id="svg_17" />
    <path
       d="m 42.52564,159.93016 c 2.91928,1.39618 4.72203,2.72203 7,5 0.56891,3.3835 0.53773,6.61391 0,10 -2.53655,3.27081 -4.78432,5.69529 -8.98828,6.27344 -4.49199,0.19629 -6.36141,0.24139 -10.01172,-2.64844 -3.20459,-4.20603 -3.14022,-6.31783 -2.51563,-11.42969 0.70889,-3.01811 2.03901,-4.39413 4.51563,-6.19531 3.1887,-1.59435 6.52971,-1.38633 10,-1 z"
       fill="#d5dfe6"
       id="svg_18" />
    <path
       d="m 76.90064,159.61766 c 4.30143,0.37081 6.30212,1.62255 9.625,4.3125 1.59689,3.19378 1.37349,6.52521 1,10 -1.68274,3.8703 -3.1537,5.41297 -7,7 -3.0732,0.52228 -5.92899,0.55289 -9,0 -2.75569,-2.18159 -4.43589,-3.87177 -6,-7 -0.57643,-7.03242 -0.57643,-7.03242 1.75,-10.9375 3.31388,-3.03772 5.21905,-2.96704 9.625,-3.375 z"
       fill="#d7e1e9"
       id="svg_19" />
  </g>
  <g
     id="g4"
     transform="matrix(1.3736879,0,0,1.3736879,-229.56608,-62.753474)">
    <path
       d="m 489.52564,228.93016 c 7.92,0 15.84,0 24,0 0.33,6.93 0.66,13.86 1,21 10.89,0.495 10.89,0.495 22,1 0,-7.26 0,-14.52 0,-22 7.92,0 15.84,0 24,0 0,7.59 0,15.18 0,23 -7.59,0 -15.18,0 -23,0 0,7.59 0,15.18 0,23 -8.25,0 -16.5,0 -25,0 0,-7.59 0,-15.18 0,-23 -7.59,0 -15.18,0 -23,0 0,-7.59 0,-15.18 0,-23 z"
       fill="#75d5fa"
       id="svg_6" />
    <path
       d="m 560.52564,251.93016 c 7.92,0 15.84,0 24,0 0,7.59 0,15.18 0,23 -7.92,0 -15.84,0 -24,0 0,-7.59 0,-15.18 0,-23 z"
       fill="#b8dff7"
       id="svg_12" />
    <path
       d="m 513.52564,251.93016 c 7.59,0 15.18,0 23,0 0,7.59 0,15.18 0,23 -7.59,0 -15.18,0 -23,0 0,-7.59 0,-15.18 0,-23 z"
       fill="#21a0e5"
       id="svg_13" />
    <path
       d="m 490.52564,228.93016 c 7.26,0 14.52,0 22,0 0,7.26 0,14.52 0,22 -7.26,0 -14.52,0 -22,0 0,-7.26 0,-14.52 0,-22 z"
       fill="#1c99e5"
       id="svg_15" />
    <path
       d="m 584.52564,206.93016 c 7.26,0 14.52,0 22,0 0,7.26 0,14.52 0,22 -7.26,0 -14.52,0 -22,0 0,-7.26 0,-14.52 0,-22 z"
       fill="#bee4f9"
       id="svg_16" />
    <path
       d="m 489.52564,228.93016 c 0.33,0 0.66,0 1,0 0,7.26 0,14.52 0,22 7.26,0 14.52,0 22,0 0,-7.26 0,-14.52 0,-22 0.33,0 0.66,0 1,0 0.33,6.93 0.66,13.86 1,21 10.89,0.495 10.89,0.495 22,1 0,-7.26 0,-14.52 0,-22 0.33,0 0.66,0 1,0 0,7.26 0,14.52 0,22 7.26,0 14.52,0 22,0 0,-7.26 0,-14.52 0,-22 0.33,0 0.66,0 1,0 0,7.59 0,15.18 0,23 -7.59,0 -15.18,0 -23,0 0,7.59 0,15.18 0,23 -0.33,0 -0.66,0 -1,0 0,-7.59 0,-15.18 0,-23 -7.59,0 -15.18,0 -23,0 0,7.59 0,15.18 0,23 -0.33,0 -0.66,0 -1,0 0,-7.59 0,-15.18 0,-23 -7.59,0 -15.18,0 -23,0 0,-7.59 0,-15.18 0,-23 z"
       fill="#c0e3f4"
       id="svg_20" />
  </g>
  <g
     id="g3"
     transform="matrix(1.5048857,0,0,1.5048857,-190.47373,-52.569338)">
    <path
       d="m 468.52564,257.93016 c 4.95124,3.24029 8.70468,7.7106 12.43359,12.24219 2.3003,2.58138 4.89317,4.76593 7.53907,6.98437 1.92124,1.68063 3.70989,3.45303 5.50911,5.26187 2.34658,2.33628 4.7343,4.62959 7.11608,6.92987 2.9721,2.87834 5.92566,5.77539 8.87847,8.6735 1.56025,1.52487 3.12671,3.04343 4.69922,4.55566 2.27716,2.19228 4.53097,4.40639 6.78149,6.62598 0.70615,0.67002 1.4123,1.34004 2.13985,2.03036 3.04854,3.04604 4.71264,4.94031 5.78081,9.17911 -1.28171,5.13609 -4.18542,7.84644 -7.87769,11.51709 -0.68873,0.71374 -1.37746,1.42748 -2.08707,2.16284 -2.25899,2.33153 -4.54479,4.63375 -6.83871,6.93091 -0.8288,0.83213 -1.6576,1.66426 -2.51152,2.52161 -1.73745,1.74247 -3.47622,3.48363 -5.21626,5.22351 -2.6737,2.67591 -5.33928,5.35974 -8.00464,8.04394 -1.69287,1.6958 -3.38622,3.39113 -5.08008,5.08594 -0.79892,0.80611 -1.59784,1.61221 -2.42098,2.44275 -0.73804,0.73497 -1.47608,1.46993 -2.23649,2.22717 -0.64951,0.65094 -1.29902,1.30187 -1.96822,1.97254 -1.63603,1.38879 -1.63603,1.38879 -3.63603,1.38879 0,0.66 0,1.32 0,2 -1.57422,1.55078 -1.57422,1.55078 -3.6875,3.3125 -2.53534,2.12986 -4.72046,4.14403 -6.9375,6.625 -2.375,2.0625 -2.375,2.0625 -5.4375,2.625 -3.66744,-0.70228 -4.67081,-1.62482 -6.9375,-4.5625 -0.4541,-3.11621 -0.4541,-3.11621 -0.39063,-6.73437 0.0129,-1.29551 0.0258,-2.59102 0.0391,-3.92579 0.0334,-1.36329 0.0673,-2.72657 0.10156,-4.08984 0.0201,-1.37888 0.0383,-2.75779 0.0547,-4.13672 0.0472,-3.3718 0.11296,-6.74219 0.19531,-10.11328 -0.56976,0.0273 -1.13952,0.0546 -1.72655,0.0827 -29.66943,1.40058 -59.27003,2.18262 -88.96948,1.81667 -2.18171,-0.0244 -4.36336,-0.0411 -6.54515,-0.0558 -4.08429,-0.0293 -8.16721,-0.0938 -12.25101,-0.16385 -1.22553,-0.008 -2.45106,-0.0152 -3.71373,-0.023 -1.67867,-0.0391 -1.67867,-0.0391 -3.39125,-0.0791 -1.4642,-0.0224 -1.4642,-0.0224 -2.95798,-0.0452 -2.44485,-0.53244 -2.44485,-0.53244 -4.25926,-2.22086 -1.44525,-2.81785 -1.55994,-4.71193 -1.5579,-7.87457 -0.006,-1.1144 -0.0125,-2.22881 -0.0189,-3.37698 0.009,-1.19801 0.0184,-2.39603 0.0279,-3.63034 -5e-4,-1.23258 -0.001,-2.46515 -0.002,-3.73508 0.003,-3.2709 0.02,-6.54136 0.0422,-9.81216 0.0101,-2.00859 0.0104,-4.01692 0.007,-6.02552 -0.006,-3.85086 0.001,-7.7014 0.0149,-11.55224 -9.1e-4,-1.20206 -0.002,-2.40412 -0.003,-3.64261 0.01,-1.1081 0.0191,-2.2162 0.0289,-3.35788 0.005,-0.97833 0.009,-1.95666 0.014,-2.96463 0.2607,-2.33957 0.2607,-2.33957 2.2607,-4.33957 2.16703,-0.2461 2.16703,-0.2461 4.91006,-0.24051 1.03769,-0.003 2.07539,-0.005 3.14452,-0.008 1.71443,0.0108 1.71443,0.0108 3.46349,0.0218 1.79997,-4.4e-4 1.79997,-4.4e-4 3.6363,-8.9e-4 3.29533,10e-4 6.59041,0.0112 9.8857,0.0251 3.44199,0.0125 6.88398,0.0137 10.32599,0.0161 6.52004,0.006 13.04002,0.0226 19.56004,0.0427 7.4219,0.0223 14.84381,0.0334 22.26573,0.0434 15.26943,0.0209 30.53879,0.0561 45.80817,0.10065 -0.0157,-0.86279 -0.0314,-1.72557 -0.0476,-2.6145 -0.0512,-3.20359 -0.0888,-6.40698 -0.11718,-9.61084 -0.0151,-1.38614 -0.0356,-2.77223 -0.0615,-4.1582 -0.0364,-1.99304 -0.0518,-3.98643 -0.0667,-5.97974 -0.0157,-1.19923 -0.0314,-2.39846 -0.0476,-3.63403 0.34058,-3.00269 0.34058,-3.00269 1.65967,-4.87842 3.05338,-2.04224 5.11177,-1.70938 8.68091,-1.12427 z"
       fill="#1aa9eb"
       id="svg_5" />
    <path
       d="m 335.52564,289.93016 c 0.99,0.33 1.98,0.66 3,1 -0.48082,0.39832 -0.96164,0.79664 -1.45703,1.20703 -1.91689,2.22747 -2.02039,3.58132 -2.23047,6.48047 -0.0657,0.80824 -0.13148,1.61648 -0.19922,2.44922 -0.0374,0.61488 -0.0748,1.22976 -0.11328,1.86328 -0.33,0 -0.66,0 -1,0 -0.0539,-1.79134 -0.0928,-3.58314 -0.125,-5.375 -0.0232,-0.99773 -0.0464,-1.99547 -0.0703,-3.02344 0.19531,-2.60156 0.19531,-2.60156 2.19531,-4.60156 z"
       fill="#2a9be7"
       id="svg_21" />
  </g>
</svg>
